<svg width="174" height="59" viewBox="0 0 174 59" fill="none" xmlns="http://www.w3.org/2000/svg">
<g clip-path="url(#clip0_180_980)">
<path d="M25.6997 23.3853C18.2156 23.3853 12.2246 28.891 12.2246 36.4684C12.2246 44.0458 18.2156 49.6448 25.6997 49.6448C33.1837 49.6448 39.2307 44.1018 39.2307 36.4684C39.2307 28.835 33.1837 23.3853 25.6997 23.3853ZM25.6997 45.4829C20.9965 45.4829 17.1331 41.7128 17.1331 36.4684C17.1331 31.2239 20.9965 27.5472 25.6997 27.5472C30.4029 27.5472 34.3222 31.2613 34.3222 36.4684C34.3222 41.6755 30.4589 45.4829 25.6997 45.4829Z" fill="#414042"/>
<path d="M81.1118 33.2955L87.9054 23.9824H82.3996L76.5953 32.1197C75.9421 32.9595 74.8596 33.2022 73.9637 33.2022H71.7241V19.5778C71.7241 17.3382 70.7909 16.7036 68.5513 16.7036H64.576V20.8096H65.8264C66.517 20.8096 66.9089 21.1642 66.9089 21.8921V44.9229H64.9492C64.2587 44.9229 63.8668 44.5682 63.8668 43.8404V32.9782C63.8668 26.5766 61.1979 23.3665 55.2442 23.3665C49.7945 23.3665 46.827 26.9312 45.8191 29.1149H45.7258C45.7258 29.1149 45.8191 28.4616 45.8191 27.6778V26.7446C45.8191 24.9156 44.774 23.9637 42.6463 23.9637H38.8203V28.0697H40.0708C40.7613 28.0697 41.1533 28.4243 41.1533 29.1522V49.0288H45.9684V37.2895C45.9684 36.0577 46.0618 34.9005 46.4164 33.9114C47.4055 30.2907 50.485 27.7711 54.3484 27.7711C58.2117 27.7711 59.0516 30.5519 59.0516 34.0607V45.856C59.0516 48.0957 59.9847 49.0288 62.2244 49.0288H71.7241V37.2335H73.6091C74.393 37.2335 75.5501 37.3268 76.0914 38.2786L80.6453 46.6959C81.7277 48.6369 82.4743 49.0288 84.8072 49.0288H87.4948V44.9229H86.7482C85.5164 44.9229 85.0125 44.7176 84.6206 43.9337L80.9065 37.1402C80.0667 35.5538 79.2268 35.2552 79.2268 35.2552V35.1618C79.2268 35.1618 79.9734 34.8072 81.1118 33.2768" fill="#414042"/>
<path d="M95.6131 43.8405V27.1367C95.6131 24.897 94.68 23.9639 92.4403 23.9639H88.521V28.0698H89.7714C90.462 28.0698 90.8539 28.4244 90.8539 29.1523V45.8562C90.8539 48.0958 91.7871 49.029 94.0267 49.029H97.9461V44.923H96.6956C96.0051 44.923 95.6131 44.5684 95.6131 43.8405Z" fill="#414042"/>
<path d="M124.262 44.9416C123.571 44.9416 123.179 44.587 123.179 43.8591V32.997C123.179 26.5954 120.51 23.3853 114.557 23.3853C109.107 23.3853 106.139 26.95 105.132 29.1336H105.038C105.038 29.1336 105.132 28.4804 105.132 27.6965V26.7634C105.132 24.9343 104.086 23.9825 101.959 23.9825H98.1328V28.0885H99.3833C100.074 28.0885 100.466 28.4431 100.466 29.1709V49.0476H105.281V37.3082C105.281 36.0764 105.374 34.938 105.729 33.9301C106.718 30.3094 109.798 27.7898 113.661 27.7898C117.524 27.7898 118.364 30.5707 118.364 34.0795V45.8748C118.364 48.1144 119.297 49.0476 121.537 49.0476H125.512V44.9416H124.262Z" fill="#414042"/>
<path d="M7.14813 39.3984V27.8457H13.1764V23.9637H7.14813V17.0396H2.40759V23.9637H0V27.8457H2.31428V39.9397C2.31428 48.3569 8.73453 49.3461 11.926 49.3461C12.9711 49.3461 13.6244 49.2528 13.6244 49.2528V44.9788C13.6244 44.9788 13.1764 45.0722 12.4859 45.0722C10.6382 45.0722 7.16679 44.4189 7.16679 39.3984" fill="#414042"/>
<path d="M167.169 1.92234C164.967 0.63456 162.503 0 160.021 0H129.376C126.856 0 124.355 0.877185 122.377 2.53824C118.905 5.46841 117.618 10.4142 119.241 14.6695C120.828 18.8315 124.934 21.6683 129.376 21.6683H152.332V23.4227H144.96C142.216 23.4227 139.472 24.3746 137.308 26.2036C134.564 28.5179 133.071 31.9519 133.09 35.4234V46.4162C133.071 47.8719 133.314 49.3463 133.855 50.7648C135.59 55.3 140.088 58.3795 144.941 58.3795C150.596 58.3795 155.616 54.2175 156.624 48.6371C156.736 47.9839 156.811 47.312 156.811 46.6588V27.9393H160.002C166.609 27.9393 172.47 23.1241 173.72 16.6292C174.84 10.8808 172.152 4.90851 167.132 1.92234H167.169ZM152.332 46.6401C152.332 46.6401 152.332 46.6401 152.332 46.6588C152.276 49.141 150.951 51.5113 148.767 52.8178C146.117 54.4228 142.645 54.1802 140.275 52.2019C138.539 50.7648 137.587 48.6185 137.587 46.4348C137.587 46.4348 137.587 35.9833 137.587 35.442C137.587 34.5648 137.699 33.669 138.017 32.8105C139.062 29.9176 141.88 27.9393 144.96 27.9393H152.332V46.6401ZM156.83 17.1704V13.9603C156.83 12.2246 158.285 10.7689 160.04 10.7689C161.794 10.7689 163.25 12.2246 163.25 13.979C163.25 15.7333 161.794 17.1891 160.04 17.1891C159.984 17.1891 156.83 17.1891 156.83 17.1891V17.1704ZM164.892 22.1163C163.399 23.0121 161.719 23.4414 160.021 23.4414H156.83V21.687H160.04C163.66 21.687 166.871 19.0555 167.598 15.5094C168.252 12.3179 166.74 8.95849 163.922 7.3161C161.16 5.71104 157.595 5.99099 155.131 8.02531C153.339 9.49973 152.35 11.7207 152.332 13.9603V17.1704H129.376C127.938 17.1704 126.501 16.6852 125.344 15.752C123.273 14.0536 122.489 11.1421 123.441 8.62255C124.355 6.17762 126.763 4.51657 129.376 4.51657H160.021C164.463 4.51657 168.438 7.74536 169.315 12.094C170.099 15.9946 168.308 20.0819 164.874 22.1163H164.892Z" fill="#5E3F99"/>
</g>
<defs>
<clipPath id="clip0_180_980">
<rect width="174" height="58.3795" fill="white"/>
</clipPath>
</defs>
</svg>
